<?xml version="1.0" encoding="utf-8"?>
<!-- Generator: Adobe Illustrator 19.0.0, SVG Export Plug-In . SVG Version: 6.00 Build 0)  -->
<svg version="1.1" id="Layer_2" xmlns="http://www.w3.org/2000/svg" xmlns:xlink="http://www.w3.org/1999/xlink" x="0px" y="0px"
	viewBox="-183 359 76 76" style="enable-background:new -183 359 76 76;" xml:space="preserve">
<style type="text/css">
	.st0{fill:url(#Shape_1_);}
	.st1{fill:url(#Shape_5_);}
	.st2{fill:url(#Shape_6_);}
	.st3{fill:none;}
</style>
<linearGradient id="Shape_1_" gradientUnits="userSpaceOnUse" x1="-370.2185" y1="788.4178" x2="-370.2185" y2="789.2862" gradientTransform="matrix(56.986 0 0 -76 20942.7637 60350)">
	<stop  offset="0" style="stop-color:#004682"/>
	<stop  offset="1" style="stop-color:#0288D1"/>
</linearGradient>
<path id="Shape_2_" class="st0" d="M-132,419.5c-3.8,2.2-8.3,3.5-13,3.5c-14.4,0-26-11.6-26-26s11.6-26,26-26c4.7,0,9.2,1.3,13,3.5
	l6-10.4c-5.6-3.2-12.1-5.1-19-5.1c-21,0-38,17-38,38s17,38,38,38c6.9,0,13.4-1.9,19-5.1L-132,419.5z"/>
<linearGradient id="Shape_5_" gradientUnits="userSpaceOnUse" x1="-370.4038" y1="786.2215" x2="-369.4038" y2="786.2215" gradientTransform="matrix(52 0 0 -48.499 19090 38529.707)">
	<stop  offset="0" style="stop-color:#26A69A"/>
	<stop  offset="1" style="stop-color:#0288D1"/>
</linearGradient>
<path id="Shape_3_" class="st1" d="M-132,374.5l-5,8.7c4.8,2.8,8,7.9,8,13.8c0,8.8-7.2,16-16,16s-16-7.2-16-16h-10
	c0,14.4,11.6,26,26,26c14.4,0,26-11.6,26-26C-119,387.4-124.2,379-132,374.5z"/>
<linearGradient id="Shape_6_" gradientUnits="userSpaceOnUse" x1="-367.223" y1="781.5229" x2="-367.9678" y2="781.9836" gradientTransform="matrix(32 0 0 -29.845 11620 23724.9316)">
	<stop  offset="0" style="stop-color:#2E7D32"/>
	<stop  offset="1" style="stop-color:#26A69A"/>
</linearGradient>
<path id="Shape_4_" class="st2" d="M-145,389c4.4,0,8,3.6,8,8c0,3-1.6,5.5-4,6.9l4,6.9c4.8-2.8,8-7.9,8-13.8c0-8.8-7.2-16-16-16
	s-16,7.2-16,16h8C-153,392.6-149.4,389-145,389z"/>
<circle id="Oval" class="st3" cx="-145" cy="397" r="38"/>
</svg>
