<?xml version="1.0" encoding="utf-8"?>
<!-- Generator: Adobe Illustrator 19.0.0, SVG Export Plug-In . SVG Version: 6.00 Build 0)  -->
<svg version="1.1" id="Layer_1" xmlns="http://www.w3.org/2000/svg" xmlns:xlink="http://www.w3.org/1999/xlink" x="0px" y="0px"
	 viewBox="-524.6 1104 155 45.5" style="enable-background:new -524.6 1104 155 45.5;" xml:space="preserve">
<g fill="white" id="Layer_1_1_">
	<desc>Created with Sketch.</desc>
	<g id="ggit_logo">
		<g id="Capa_1">
			<g id="Group">
				<g id="Shape" transform="translate(77.000000, 19.000000)">
					<path d="M-583,1108.6c-1.8,0.8-4.6,1.3-7.2,1.3c-8.2,0-11.4-4.2-11.4-12.4c0-8.4,3.5-12.5,11.6-12.5c2.3,0,4.8,0.4,6.6,1.1
						l-0.5,4.7c-1.7-0.6-3.8-1-5.8-1c-4.7,0-6.2,1.7-6.2,7.6c0,6,1.4,7.7,5.6,7.7c0.9,0,1.8-0.1,2.6-0.3v-8.2h4.8L-583,1108.6
						L-583,1108.6z"/>
					<path d="M-566.3,1101l5.1,8.5h-5.9l-3.7-7.5h-3.1v7.5h-5v-20.8h8.1c5.4,0,8.2,2.1,8.2,6.5C-562.7,1098.2-564,1100.2-566.3,1101
						z M-570.9,1092.8h-3.1v5.5h3.1c2.2,0,3-0.6,3-2.8C-568,1093.5-568.7,1092.8-570.9,1092.8z"/>
					<path d="M-541.5,1101.8c0,5.4-3,8.1-8.9,8.1s-8.9-2.7-8.9-8.1v-13.1h5v13.1c0,2.5,1.2,3.6,3.9,3.6c2.8,0,3.9-1.1,3.9-3.6v-13.1
						h5V1101.8z"/>
					<path d="M-529.5,1103h-2.9v6.5h-5v-20.8h7.9c6.1,0,8.6,2.4,8.6,7.2C-520.9,1100.3-523.3,1103-529.5,1103z M-529.5,1092.8h-2.9
						v6.2h2.9c2.4,0,3.4-0.5,3.4-3.1C-526,1093.5-526.9,1092.8-529.5,1092.8z"/>
					<path d="M-508.7,1109.9c-6.9,0-9.8-3.6-9.8-10.8s2.8-10.7,9.8-10.7c6.9,0,9.7,3.5,9.7,10.7
						C-499,1106.5-501.8,1109.9-508.7,1109.9z M-508.7,1092.8c-3.3,0-4.5,1.3-4.5,6.4c0,5,1.2,6.4,4.5,6.4s4.5-1.4,4.5-6.4
						C-504.2,1094.1-505.3,1092.8-508.7,1092.8z"/>
					<path d="M-477.7,1108.6c-1.8,0.8-4.6,1.3-7.2,1.3c-8.2,0-11.4-4.2-11.4-12.4c0-8.4,3.5-12.5,11.6-12.5c2.3,0,4.8,0.4,6.6,1.1
						l-0.5,4.7c-1.7-0.6-3.8-1-5.8-1c-4.7,0-6.2,1.7-6.2,7.6c0,6,1.4,7.7,5.6,7.7c0.9,0,1.8-0.1,2.6-0.3v-8.2h4.8L-477.7,1108.6
						L-477.7,1108.6z"/>
					<polygon points="-473.4,1085.5 -467.9,1085.5 -467.9,1109.5 -473.4,1109.5 					"/>
					<polygon points="-453.1,1090.4 -453.1,1109.5 -458.5,1109.5 -458.5,1090.4 -465,1090.4 -464.8,1085.5 -446.7,1085.5 
						-446.6,1090.4 					"/>
				</g>
				<g id="Shape_1_" transform="translate(80.000000, 52.000000)">
					<polygon points="-575.7,1085.4 -578.6,1094.5 -580.8,1094.5 -582.5,1087.9 -584.3,1094.5 -586.5,1094.5 -589.3,1085.4 
						-587,1085.4 -585.3,1092 -583.5,1085.4 -581.5,1085.4 -579.6,1092 -577.9,1085.4 					"/>
					<path d="M-568.4,1091.7h-4.4v0.6c0,0.4,0.1,0.7,0.4,0.8c0.3,0.2,0.8,0.3,1.5,0.3s1.4-0.1,2.3-0.3v1.3c-0.9,0.2-1.7,0.3-2.7,0.3
						c-2.4,0-3.6-0.7-3.6-2.2v-2.4c0-0.9,0.3-1.5,0.8-1.9c0.6-0.4,1.4-0.6,2.5-0.6c1,0,1.8,0.2,2.3,0.5c0.5,0.4,0.8,1,0.8,1.9
						L-568.4,1091.7L-568.4,1091.7z M-570.3,1090.5v-1c0-0.2-0.1-0.4-0.3-0.5c-0.2-0.1-0.5-0.2-0.9-0.2c-0.5,0-0.8,0.1-1,0.2
						c-0.2,0.1-0.3,0.3-0.3,0.5v1H-570.3z"/>
					<polygon points="-561.5,1094.5 -563.5,1094.5 -563.5,1084.7 -561.5,1084.7 					"/>
					<path d="M-557.4,1086.9h-2v-1.7h2V1086.9z M-557.4,1094.5h-2v-6.8h2V1094.5z"/>
					<polygon points="-548.8,1087.7 -551.3,1094.5 -553.3,1094.5 -555.9,1087.7 -553.7,1087.7 -552.2,1092.4 -550.8,1087.7 					"/>
					<path d="M-541.2,1091.7h-4.4v0.6c0,0.4,0.1,0.7,0.4,0.8s0.8,0.3,1.5,0.3s1.4-0.1,2.3-0.3v1.3c-0.9,0.2-1.7,0.3-2.7,0.3
						c-2.4,0-3.6-0.7-3.6-2.2v-2.4c0-0.9,0.3-1.5,0.8-1.9c0.6-0.4,1.4-0.6,2.5-0.6c1,0,1.8,0.2,2.3,0.5c0.5,0.4,0.8,1,0.8,1.9
						L-541.2,1091.7L-541.2,1091.7z M-543.2,1090.5v-1c0-0.2-0.1-0.4-0.3-0.5c-0.2-0.1-0.5-0.2-0.9-0.2c-0.5,0-0.8,0.1-1,0.2
						c-0.2,0.1-0.3,0.3-0.3,0.5v1H-543.2z"/>
					<path d="M-534.3,1086.9h-2v-1.7h2V1086.9z M-534.3,1094.5h-2v-6.8h2V1094.5z"/>
					<path d="M-525.7,1094.5h-2v-4.7c0-0.4-0.1-0.6-0.2-0.8c-0.1-0.1-0.4-0.2-0.9-0.2c-0.6,0-1,0.1-1.1,0.2
						c-0.2,0.1-0.2,0.4-0.2,0.8v4.7h-2v-6.8h2v0.8c0.2-0.6,0.9-1,2.2-1c0.9,0,1.5,0.2,1.8,0.5c0.3,0.3,0.5,0.8,0.5,1.5
						L-525.7,1094.5L-525.7,1094.5z"/>
					<path d="M-517.2,1094.5h-2v-4.7c0-0.4-0.1-0.6-0.2-0.8c-0.1-0.1-0.4-0.2-0.9-0.2c-0.6,0-1,0.1-1.1,0.2
						c-0.2,0.1-0.2,0.4-0.2,0.8v4.7h-2v-6.8h2v0.8c0.2-0.6,0.9-1,2.2-1c0.9,0,1.5,0.2,1.8,0.5c0.3,0.3,0.5,0.8,0.5,1.5
						L-517.2,1094.5L-517.2,1094.5z"/>
					<path d="M-508.4,1090.2v2c0,0.4-0.1,0.8-0.2,1.1c-0.1,0.3-0.3,0.6-0.5,0.7c-0.2,0.2-0.5,0.3-0.8,0.4c-0.3,0.1-0.6,0.2-0.9,0.2
						s-0.6,0-1,0c-0.4,0-0.7,0-1,0s-0.6-0.1-0.9-0.2c-0.3-0.1-0.6-0.2-0.8-0.4c-0.2-0.2-0.4-0.4-0.5-0.7c-0.1-0.3-0.2-0.7-0.2-1.1
						v-2c0-0.5,0.1-0.9,0.2-1.2c0.1-0.3,0.3-0.6,0.5-0.8c0.2-0.2,0.5-0.3,0.8-0.4c0.3-0.1,0.6-0.2,0.9-0.2s0.6,0,1,0
						c0.4,0,0.7,0,1,0s0.6,0.1,0.9,0.2s0.6,0.2,0.8,0.4c0.2,0.2,0.4,0.4,0.5,0.8C-508.5,1089.3-508.4,1089.7-508.4,1090.2z
						 M-510.5,1092.4v-2.6c0-0.4-0.1-0.6-0.3-0.8c-0.2-0.2-0.6-0.2-1.1-0.2c-0.6,0-0.9,0.1-1.1,0.2c-0.2,0.2-0.3,0.4-0.3,0.8v2.6
						c0,0.4,0.1,0.6,0.3,0.7c0.2,0.1,0.6,0.2,1.1,0.2c0.6,0,0.9-0.1,1.1-0.2C-510.6,1093-510.5,1092.8-510.5,1092.4z"/>
					<polygon points="-500.2,1087.7 -502.7,1094.5 -504.8,1094.5 -507.4,1087.7 -505.2,1087.7 -503.7,1092.4 -502.3,1087.7 					"/>
					<path d="M-492.8,1094.5h-2v-0.6c-0.2,0.3-0.4,0.5-0.6,0.6c-0.3,0.1-0.8,0.2-1.5,0.2c-0.9,0-1.5-0.1-1.8-0.4
						c-0.3-0.3-0.4-0.9-0.4-1.8c0-0.8,0.2-1.4,0.5-1.7c0.3-0.3,0.9-0.5,1.7-0.5h2.3v-0.5c0-0.4-0.1-0.7-0.3-0.8
						c-0.2-0.1-0.6-0.2-1.2-0.2s-1.4,0.1-2.4,0.2v-1.3c0.8-0.1,1.6-0.1,2.6-0.1c1.2,0,2.1,0.2,2.6,0.5c0.5,0.3,0.7,0.9,0.7,1.8
						L-492.8,1094.5L-492.8,1094.5z M-494.8,1092.8v-1.3h-1.4c-0.4,0-0.7,0.1-0.8,0.2c-0.1,0.1-0.2,0.4-0.2,0.8
						c0,0.4,0.1,0.7,0.2,0.8s0.4,0.1,0.9,0.1c0.2,0,0.4,0,0.5,0s0.2,0,0.4,0c0.1,0,0.2,0,0.3-0.1c0.1,0,0.1-0.1,0.1-0.2
						C-494.8,1093-494.8,1092.9-494.8,1092.8z"/>
					<path d="M-486,1094.6c-0.4,0-0.8,0.1-1.1,0.1c-0.3,0-0.6,0-0.8,0c-0.2,0-0.5-0.1-0.7-0.2c-0.3-0.1-0.5-0.2-0.6-0.4
						c-0.2-0.1-0.3-0.4-0.4-0.6c-0.1-0.3-0.2-0.6-0.2-0.9v-3.5h-1.4v-1.3h1.4v-2h2v2h1.9v1.3h-1.9v3.2c0,0.5,0.1,0.8,0.2,0.9
						c0.1,0.2,0.4,0.2,0.9,0.2c0.2,0,0.4,0,0.7-0.1V1094.6L-486,1094.6z"/>
					<path d="M-482.3,1086.9h-2v-1.7h2V1086.9z M-482.3,1094.5h-2v-6.8h2V1094.5z"/>
					<path d="M-473.7,1094.5h-2v-4.7c0-0.4-0.1-0.6-0.2-0.8c-0.1-0.1-0.4-0.2-0.9-0.2c-0.6,0-1,0.1-1.1,0.2
						c-0.2,0.1-0.2,0.4-0.2,0.8v4.7h-2v-6.8h2v0.8c0.2-0.6,0.9-1,2.2-1c0.9,0,1.5,0.2,1.8,0.5c0.3,0.3,0.5,0.8,0.5,1.5
						L-473.7,1094.5L-473.7,1094.5z"/>
					<path d="M-464.9,1087.7v7.1c0,1-0.3,1.7-1,2.1c-0.7,0.4-1.7,0.6-3,0.6c-1.1,0-1.9,0-2.5-0.1v-1.4c0.9,0.1,1.7,0.2,2.5,0.2
						c0.7,0,1.2-0.1,1.5-0.3c0.3-0.2,0.5-0.6,0.5-1.1v-1.1c-0.2,0.3-0.5,0.6-0.8,0.7c-0.3,0.1-0.7,0.2-1.4,0.2c-1,0-1.7-0.1-2.1-0.4
						c-0.4-0.3-0.6-0.8-0.6-1.6v-2.6c0-0.9,0.2-1.5,0.6-1.9c0.4-0.3,1.1-0.5,2.2-0.5c0.5,0,0.9,0,1.1,0.1c0.3,0.1,0.5,0.1,0.6,0.3
						c0.1,0.1,0.3,0.3,0.4,0.6v-0.8L-464.9,1087.7L-464.9,1087.7L-464.9,1087.7z M-467,1092.5v-2.7c0-0.4-0.1-0.6-0.3-0.7
						c-0.2-0.1-0.6-0.2-1.3-0.2c-0.6,0-0.9,0.1-1,0.2c-0.2,0.1-0.2,0.4-0.2,0.8v2.6c0,0.4,0.1,0.7,0.2,0.8c0.1,0.1,0.5,0.2,1.2,0.2
						c0.6,0,1-0.1,1.2-0.2C-467.1,1093-467,1092.8-467,1092.5z"/>
				</g>
			</g>
		</g>
	</g>
</g>
</svg>
